<svg width="232" height="232" viewBox="0 0 232 232" fill="none" xmlns="http://www.w3.org/2000/svg">
<g filter="url(#filter0_d_210_1427)">
<rect x="66" y="22" width="100" height="100" rx="50" fill="#FF5156"/>
</g>
<path opacity="0.9" fill-rule="evenodd" clip-rule="evenodd" d="M111.342 59.615C111.342 58.2872 111.832 57.0137 112.706 56.0748C113.58 55.1359 114.765 54.6084 116 54.6084C117.235 54.6084 118.42 55.1359 119.294 56.0748C120.168 57.0137 120.658 58.2872 120.658 59.615V71.0335C120.658 72.3613 120.168 73.6348 119.294 74.5737C118.42 75.5126 117.235 76.0401 116 76.0401C114.765 76.0401 113.58 75.5126 112.706 74.5737C111.832 73.6348 111.342 72.3613 111.342 71.0335V59.615ZM117.553 82.5987C120.14 82.197 122.506 80.8068 124.217 78.6827C125.928 76.5587 126.87 73.8431 126.87 71.0335C126.87 70.5909 126.706 70.1664 126.415 69.8535C126.124 69.5405 125.729 69.3647 125.317 69.3647C124.905 69.3647 124.51 69.5405 124.219 69.8535C123.928 70.1664 123.764 70.5909 123.764 71.0335C123.764 73.2466 122.946 75.369 121.49 76.9338C120.034 78.4987 118.059 79.3778 116 79.3778C113.941 79.3778 111.966 78.4987 110.51 76.9338C109.054 75.369 108.236 73.2466 108.236 71.0335C108.236 70.5909 108.072 70.1664 107.781 69.8535C107.49 69.5405 107.095 69.3647 106.683 69.3647C106.271 69.3647 105.876 69.5405 105.585 69.8535C105.294 70.1664 105.13 70.5909 105.13 71.0335C105.13 73.8431 106.072 76.5587 107.783 78.6827C109.494 80.8068 111.86 82.197 114.447 82.5987V86.0533H112.297C111.885 86.0533 111.49 86.2291 111.199 86.5421C110.908 86.8551 110.744 87.2795 110.744 87.7221C110.744 88.1648 110.908 88.5892 111.199 88.9022C111.49 89.2152 111.885 89.391 112.297 89.391H119.703C120.115 89.391 120.51 89.2152 120.801 88.9022C121.092 88.5892 121.256 88.1648 121.256 87.7221C121.256 87.2795 121.092 86.8551 120.801 86.5421C120.51 86.2291 120.115 86.0533 119.703 86.0533H117.553V82.5987Z" fill="white"/>
<defs>
<filter id="filter0_d_210_1427" x="0" y="0" width="232" height="232" filterUnits="userSpaceOnUse" color-interpolation-filters="sRGB">
<feFlood flood-opacity="0" result="BackgroundImageFix"/>
<feColorMatrix in="SourceAlpha" type="matrix" values="0 0 0 0 0 0 0 0 0 0 0 0 0 0 0 0 0 0 127 0" result="hardAlpha"/>
<feOffset dy="44"/>
<feGaussianBlur stdDeviation="33"/>
<feColorMatrix type="matrix" values="0 0 0 0 0.691633 0 0 0 0 0.764753 0 0 0 0 0.824162 0 0 0 0.727846 0"/>
<feBlend mode="normal" in2="BackgroundImageFix" result="effect1_dropShadow_210_1427"/>
<feBlend mode="normal" in="SourceGraphic" in2="effect1_dropShadow_210_1427" result="shape"/>
</filter>
</defs>
</svg>
